<svg width="250" height="250" viewBox="0 0 250 250" fill="none" xmlns="http://www.w3.org/2000/svg">
<path d="M125 215C93.75 215 66.125 199 50 175C50.375 150 100 136.25 125 136.25C150 136.25 199.625 150 200 175C191.736 187.305 180.573 197.389 167.495 204.365C154.416 211.34 139.823 214.992 125 215ZM125 37.5C134.946 37.5 144.484 41.4509 151.517 48.4835C158.549 55.5161 162.5 65.0544 162.5 75C162.5 84.9456 158.549 94.4839 151.517 101.517C144.484 108.549 134.946 112.5 125 112.5C115.054 112.5 105.516 108.549 98.4835 101.517C91.4509 94.4839 87.5 84.9456 87.5 75C87.5 65.0544 91.4509 55.5161 98.4835 48.4835C105.516 41.4509 115.054 37.5 125 37.5ZM125 0C108.585 0 92.3303 3.23322 77.1646 9.51506C61.9989 15.7969 48.219 25.0043 36.6117 36.6117C13.1696 60.0537 0 91.8479 0 125C0 158.152 13.1696 189.946 36.6117 213.388C48.219 224.996 61.9989 234.203 77.1646 240.485C92.3303 246.767 108.585 250 125 250C158.152 250 189.946 236.83 213.388 213.388C236.83 189.946 250 158.152 250 125C250 55.875 193.75 0 125 0Z" fill="#90CAF9"/>
</svg>
